<svg xmlns="http://www.w3.org/2000/svg" width="18" height="18" viewBox="0 0 18 18">
    <g fill="none" fill-rule="evenodd">
        <g fill="#c2185b">
            <g>
                <g>
                    <g>
                        <path d="M13.2 7.2c0 1.83-1.02 3.45-2.1 4.44v.96c0 .6.3 1.53 3.3 2.1 1.727.33 3.12 1.608 3.6 3.3H0c.283-1.691 1.609-3.017 3.3-3.3 3-.54 3.6-1.5 3.6-2.1v-.96c-1.08-.99-2.1-2.58-2.1-4.44V4.32C4.8 1.2 7.02 0 9 0s4.2 1.2 4.2 4.32V7.2z" transform="translate(-1047 -36) translate(1044 32) translate(0 1) translate(3 3)"/>
                    </g>
                </g>
            </g>
        </g>
    </g>
</svg>
